<mxfile host="app.diagrams.net" agent="Mozilla/5.0 (Windows NT 10.0; Win64; x64) AppleWebKit/537.36 (KHTML, like Gecko) Chrome/131.0.0.0 Safari/537.36" version="24.9.3">
  <diagram name="Сторінка-1" id="gbi9D05tryvwSib6soP6">
    <mxGraphModel grid="1" page="1" gridSize="10" guides="1" tooltips="1" connect="1" arrows="1" fold="1" pageScale="1" pageWidth="827" pageHeight="1169" math="0" shadow="0">
      <root>
        <mxCell id="0" />
        <mxCell id="1" parent="0" />
        <mxCell id="LmWXdkH0MpwwB4HbBWz5-2" style="edgeStyle=orthogonalEdgeStyle;rounded=0;orthogonalLoop=1;jettySize=auto;html=1;" edge="1" parent="1" source="LmWXdkH0MpwwB4HbBWz5-1" target="LmWXdkH0MpwwB4HbBWz5-3">
          <mxGeometry relative="1" as="geometry">
            <mxPoint x="390" y="-560" as="targetPoint" />
          </mxGeometry>
        </mxCell>
        <mxCell id="LmWXdkH0MpwwB4HbBWz5-1" value="Start" style="ellipse;whiteSpace=wrap;html=1;fillColor=#d5e8d4;strokeColor=#82b366;" vertex="1" parent="1">
          <mxGeometry x="330" y="-730" width="120" height="80" as="geometry" />
        </mxCell>
        <mxCell id="LmWXdkH0MpwwB4HbBWz5-4" style="edgeStyle=orthogonalEdgeStyle;rounded=0;orthogonalLoop=1;jettySize=auto;html=1;" edge="1" parent="1" source="LmWXdkH0MpwwB4HbBWz5-3" target="LmWXdkH0MpwwB4HbBWz5-5">
          <mxGeometry relative="1" as="geometry">
            <mxPoint x="390" y="-480" as="targetPoint" />
          </mxGeometry>
        </mxCell>
        <mxCell id="LmWXdkH0MpwwB4HbBWz5-3" value="double a = 5.3, y = 1.1, hx = 0.5; double x_start = -3.0, x_end = 3.0;" style="rounded=0;whiteSpace=wrap;html=1;" vertex="1" parent="1">
          <mxGeometry x="285" y="-600" width="210" height="90" as="geometry" />
        </mxCell>
        <mxCell id="LmWXdkH0MpwwB4HbBWz5-6" style="edgeStyle=orthogonalEdgeStyle;rounded=0;orthogonalLoop=1;jettySize=auto;html=1;" edge="1" parent="1" source="LmWXdkH0MpwwB4HbBWz5-5" target="LmWXdkH0MpwwB4HbBWz5-7">
          <mxGeometry relative="1" as="geometry">
            <mxPoint x="390" y="-300" as="targetPoint" />
          </mxGeometry>
        </mxCell>
        <mxCell id="LmWXdkH0MpwwB4HbBWz5-5" value="cout &amp;lt;&amp;lt; &quot;x\t\tCondition\t\tResult (y)&quot; &amp;lt;&amp;lt; endl;&amp;nbsp;" style="shape=parallelogram;perimeter=parallelogramPerimeter;whiteSpace=wrap;html=1;fixedSize=1;" vertex="1" parent="1">
          <mxGeometry x="260" y="-470" width="260" height="120" as="geometry" />
        </mxCell>
        <mxCell id="LmWXdkH0MpwwB4HbBWz5-8" style="edgeStyle=orthogonalEdgeStyle;rounded=0;orthogonalLoop=1;jettySize=auto;html=1;" edge="1" parent="1" source="LmWXdkH0MpwwB4HbBWz5-7" target="LmWXdkH0MpwwB4HbBWz5-9">
          <mxGeometry relative="1" as="geometry">
            <mxPoint x="390" y="-170" as="targetPoint" />
          </mxGeometry>
        </mxCell>
        <mxCell id="LmWXdkH0MpwwB4HbBWz5-7" value="&#xa;&lt;span style=&quot;color: rgb(0, 0, 0); font-family: Helvetica; font-size: 12px; font-style: normal; font-variant-ligatures: normal; font-variant-caps: normal; font-weight: 400; letter-spacing: normal; orphans: 2; text-align: center; text-indent: 0px; text-transform: none; widows: 2; word-spacing: 0px; -webkit-text-stroke-width: 0px; white-space: normal; background-color: rgb(251, 251, 251); text-decoration-thickness: initial; text-decoration-style: initial; text-decoration-color: initial; display: inline !important; float: none;&quot;&gt;cout &amp;lt;&amp;lt; &quot;-------------------------------------------&quot; &amp;lt;&amp;lt; endl;&lt;/span&gt;&#xa;&#xa;" style="shape=parallelogram;perimeter=parallelogramPerimeter;whiteSpace=wrap;html=1;fixedSize=1;" vertex="1" parent="1">
          <mxGeometry x="220" y="-320" width="340" height="100" as="geometry" />
        </mxCell>
        <mxCell id="LmWXdkH0MpwwB4HbBWz5-11" value="" style="edgeStyle=orthogonalEdgeStyle;rounded=0;orthogonalLoop=1;jettySize=auto;html=1;" edge="1" parent="1" source="LmWXdkH0MpwwB4HbBWz5-9" target="LmWXdkH0MpwwB4HbBWz5-10">
          <mxGeometry relative="1" as="geometry" />
        </mxCell>
        <mxCell id="LmWXdkH0MpwwB4HbBWz5-9" value="for (double x = x_start; x &lt;= x_end; x += hx)" style="rhombus;whiteSpace=wrap;html=1;" vertex="1" parent="1">
          <mxGeometry x="305" y="-180" width="175" height="170" as="geometry" />
        </mxCell>
        <mxCell id="LmWXdkH0MpwwB4HbBWz5-12" style="edgeStyle=orthogonalEdgeStyle;rounded=0;orthogonalLoop=1;jettySize=auto;html=1;" edge="1" parent="1" source="LmWXdkH0MpwwB4HbBWz5-10" target="LmWXdkH0MpwwB4HbBWz5-13">
          <mxGeometry relative="1" as="geometry">
            <mxPoint x="392.5" y="190" as="targetPoint" />
          </mxGeometry>
        </mxCell>
        <mxCell id="LmWXdkH0MpwwB4HbBWz5-10" value="double result; double condition = x * x + y * y;" style="whiteSpace=wrap;html=1;" vertex="1" parent="1">
          <mxGeometry x="313.75" y="60" width="157.5" height="80" as="geometry" />
        </mxCell>
        <mxCell id="LmWXdkH0MpwwB4HbBWz5-14" style="edgeStyle=orthogonalEdgeStyle;rounded=0;orthogonalLoop=1;jettySize=auto;html=1;" edge="1" parent="1" source="LmWXdkH0MpwwB4HbBWz5-13" target="LmWXdkH0MpwwB4HbBWz5-15">
          <mxGeometry relative="1" as="geometry">
            <mxPoint x="392.5" y="350" as="targetPoint" />
          </mxGeometry>
        </mxCell>
        <mxCell id="LmWXdkH0MpwwB4HbBWz5-13" value="if (condition &lt;= a * a)" style="rhombus;whiteSpace=wrap;html=1;" vertex="1" parent="1">
          <mxGeometry x="323.75" y="180" width="137.5" height="130" as="geometry" />
        </mxCell>
        <mxCell id="LmWXdkH0MpwwB4HbBWz5-16" style="edgeStyle=orthogonalEdgeStyle;rounded=0;orthogonalLoop=1;jettySize=auto;html=1;" edge="1" parent="1" source="LmWXdkH0MpwwB4HbBWz5-15" target="LmWXdkH0MpwwB4HbBWz5-17">
          <mxGeometry relative="1" as="geometry">
            <mxPoint x="392.5" y="460" as="targetPoint" />
          </mxGeometry>
        </mxCell>
        <mxCell id="LmWXdkH0MpwwB4HbBWz5-15" value="result = x / (15 * x * x);" style="rounded=0;whiteSpace=wrap;html=1;" vertex="1" parent="1">
          <mxGeometry x="332.5" y="350" width="120" height="60" as="geometry" />
        </mxCell>
        <mxCell id="LmWXdkH0MpwwB4HbBWz5-18" style="edgeStyle=orthogonalEdgeStyle;rounded=0;orthogonalLoop=1;jettySize=auto;html=1;" edge="1" parent="1" source="LmWXdkH0MpwwB4HbBWz5-17" target="LmWXdkH0MpwwB4HbBWz5-19">
          <mxGeometry relative="1" as="geometry">
            <mxPoint x="392.5" y="600" as="targetPoint" />
          </mxGeometry>
        </mxCell>
        <mxCell id="LmWXdkH0MpwwB4HbBWz5-17" value="cout &lt;&lt; x &lt;&lt; &quot;\t\t&lt;= a^2\t\t&quot; &lt;&lt; result &lt;&lt; endl;" style="shape=parallelogram;perimeter=parallelogramPerimeter;whiteSpace=wrap;html=1;fixedSize=1;" vertex="1" parent="1">
          <mxGeometry x="303.75" y="450" width="177.5" height="90" as="geometry" />
        </mxCell>
        <mxCell id="LmWXdkH0MpwwB4HbBWz5-20" style="edgeStyle=orthogonalEdgeStyle;rounded=0;orthogonalLoop=1;jettySize=auto;html=1;" edge="1" parent="1" source="LmWXdkH0MpwwB4HbBWz5-19" target="LmWXdkH0MpwwB4HbBWz5-21">
          <mxGeometry relative="1" as="geometry">
            <mxPoint x="392.5" y="720" as="targetPoint" />
          </mxGeometry>
        </mxCell>
        <mxCell id="LmWXdkH0MpwwB4HbBWz5-19" value="else" style="rhombus;whiteSpace=wrap;html=1;" vertex="1" parent="1">
          <mxGeometry x="348.75" y="584.5" width="87.5" height="90" as="geometry" />
        </mxCell>
        <mxCell id="LmWXdkH0MpwwB4HbBWz5-22" style="edgeStyle=orthogonalEdgeStyle;rounded=0;orthogonalLoop=1;jettySize=auto;html=1;" edge="1" parent="1" source="LmWXdkH0MpwwB4HbBWz5-21" target="LmWXdkH0MpwwB4HbBWz5-23">
          <mxGeometry relative="1" as="geometry">
            <mxPoint x="392.5" y="800" as="targetPoint" />
          </mxGeometry>
        </mxCell>
        <mxCell id="LmWXdkH0MpwwB4HbBWz5-21" value="result = x * x / (x * x + exp(x));" style="rounded=0;whiteSpace=wrap;html=1;" vertex="1" parent="1">
          <mxGeometry x="332.5" y="690" width="120" height="60" as="geometry" />
        </mxCell>
        <mxCell id="LmWXdkH0MpwwB4HbBWz5-24" style="edgeStyle=orthogonalEdgeStyle;rounded=0;orthogonalLoop=1;jettySize=auto;html=1;" edge="1" parent="1" source="LmWXdkH0MpwwB4HbBWz5-23" target="LmWXdkH0MpwwB4HbBWz5-25">
          <mxGeometry relative="1" as="geometry">
            <mxPoint x="392.5" y="940" as="targetPoint" />
          </mxGeometry>
        </mxCell>
        <mxCell id="LmWXdkH0MpwwB4HbBWz5-26" style="edgeStyle=orthogonalEdgeStyle;rounded=0;orthogonalLoop=1;jettySize=auto;html=1;entryX=1;entryY=0.5;entryDx=0;entryDy=0;" edge="1" parent="1" source="LmWXdkH0MpwwB4HbBWz5-23" target="LmWXdkH0MpwwB4HbBWz5-9">
          <mxGeometry relative="1" as="geometry">
            <mxPoint x="650" y="-120" as="targetPoint" />
            <Array as="points">
              <mxPoint x="651" y="830" />
              <mxPoint x="651" y="-95" />
            </Array>
          </mxGeometry>
        </mxCell>
        <mxCell id="LmWXdkH0MpwwB4HbBWz5-23" value="cout &lt;&lt; x &lt;&lt; &quot;\t\t&gt; a^2\t\t&quot; &lt;&lt; result &lt;&lt; endl;" style="shape=parallelogram;perimeter=parallelogramPerimeter;whiteSpace=wrap;html=1;fixedSize=1;" vertex="1" parent="1">
          <mxGeometry x="313.75" y="790" width="157.5" height="80" as="geometry" />
        </mxCell>
        <mxCell id="LmWXdkH0MpwwB4HbBWz5-25" value="End" style="ellipse;whiteSpace=wrap;html=1;" vertex="1" parent="1">
          <mxGeometry x="332.5" y="900" width="120" height="80" as="geometry" />
        </mxCell>
      </root>
    </mxGraphModel>
  </diagram>
</mxfile>
